<?xml version="1.0" encoding="utf-8"?>
<!-- Generator: Adobe Illustrator 24.1.2, SVG Export Plug-In . SVG Version: 6.00 Build 0)  -->
<svg version="1.1" id="Layer_1" xmlns="http://www.w3.org/2000/svg" xmlns:xlink="http://www.w3.org/1999/xlink" x="0px" y="0px"
	 viewBox="0 0 304 63.2" style="enable-background:new 0 0 304 63.2;" xml:space="preserve">
<style type="text/css">
	.st0{fill:#D1D1D1;}
</style>
<g>
	<g>
		<path class="st0" d="M89.1,23.4h-6.8l-1.6,4.9h-2.9l6.5-18h3l6.5,18h-3L89.1,23.4z M83,21.2h5.4l-2.7-7.9h-0.1L83,21.2z"/>
		<path class="st0" d="M106.4,28.3h-2.6v-2.2h-0.1c-0.7,1.6-2.1,2.5-4.1,2.5c-2.9,0-4.6-1.9-4.6-4.9v-8.5h2.7v8c0,2,0.9,3.1,2.8,3.1
			s3.1-1.3,3.1-3.4v-7.6h2.7L106.4,28.3L106.4,28.3z"/>
		<path class="st0" d="M112.9,12.1v3.1h2.5v2.1h-2.5v7.3c0,1.1,0.5,1.6,1.6,1.6c0.3,0,0.7,0,0.9-0.1v2.1c-0.3,0.1-0.9,0.1-1.5,0.1
			c-2.7,0-3.7-1-3.7-3.5v-7.5h-1.9v-2.1h1.9v-3.1C110.2,12.1,112.9,12.1,112.9,12.1z"/>
		<path class="st0" d="M118.1,10.3h2.7v7.1h0.1c0.7-1.5,2.2-2.4,4.1-2.4c2.9,0,4.6,1.9,4.6,4.9v8.4h-2.7v-7.9c0-1.9-1-3.1-2.9-3.1
			c-2,0-3.2,1.4-3.2,3.4v7.6h-2.7V10.3z"/>
		<path class="st0" d="M131.9,21.8c0-4.2,2.5-6.8,6.2-6.8s6.2,2.6,6.2,6.8s-2.5,6.8-6.2,6.8C134.4,28.5,131.9,26,131.9,21.8z
			 M141.6,21.8c0-2.9-1.4-4.6-3.5-4.6s-3.5,1.7-3.5,4.6s1.4,4.6,3.5,4.6C140.3,26.3,141.6,24.7,141.6,21.8z"/>
		<path class="st0" d="M146.8,15.2h2.6v2.2h0.1c0.4-1.5,1.6-2.4,3.2-2.4c0.4,0,0.7,0.1,0.9,0.1v2.5c-0.2-0.1-0.7-0.1-1.2-0.1
			c-1.7,0-2.8,1.2-2.8,3v7.8h-2.7V15.2H146.8z"/>
		<path class="st0" d="M155.5,11.5c0-0.9,0.7-1.5,1.6-1.5s1.5,0.7,1.5,1.5s-0.7,1.5-1.5,1.5S155.5,12.4,155.5,11.5z M155.7,15.2h2.7
			v13.1h-2.7V15.2z"/>
		<path class="st0" d="M166.3,15c3.1,0,5,1.7,5.1,4.1h-2.5c-0.1-1.3-1.1-2.1-2.6-2.1s-2.4,0.7-2.4,1.8c0,0.8,0.6,1.4,2,1.7L168,21
			c2.7,0.6,3.7,1.7,3.7,3.6c0,2.4-2.2,4-5.3,4c-3.3,0-5.2-1.6-5.5-4.1h2.7c0.2,1.4,1.2,2,2.8,2s2.6-0.7,2.6-1.7
			c0-0.8-0.5-1.3-1.9-1.7l-2.1-0.5c-2.5-0.6-3.7-1.8-3.7-3.7C161.3,16.6,163.3,15,166.3,15z"/>
		<path class="st0" d="M185.2,24.5c-0.4,2.4-2.6,4.1-5.6,4.1c-3.8,0-6.2-2.6-6.2-6.7s2.4-6.8,6.1-6.8c3.6,0,5.9,2.6,5.9,6.5v0.9
			h-9.3v0.1c0,2.3,1.4,3.8,3.5,3.8c1.5,0,2.7-0.8,3-1.9H185.2z M176.1,20.5h6.5c-0.1-2-1.3-3.4-3.2-3.4S176.3,18.6,176.1,20.5z"/>
		<path class="st0" d="M187.2,21.8c0-4.1,2.2-6.8,5.5-6.8c1.9,0,3.4,0.9,4.1,2.4l0,0v-7h2.7v18h-2.6v-2.2l0,0
			c-0.8,1.5-2.3,2.5-4.2,2.5C189.4,28.5,187.2,25.9,187.2,21.8z M190,21.8c0,2.8,1.3,4.5,3.5,4.5c2.1,0,3.4-1.8,3.4-4.5
			s-1.4-4.5-3.4-4.5C191.3,17.3,190,19,190,21.8z"/>
	</g>
	<g>
		<path class="st0" d="M90.5,58.3H79.1v-18h11.4v2.4h-8.6V48h8.2v2.3h-8.2v5.6h8.6V58.3z"/>
		<path class="st0" d="M92.1,51.8c0-4.1,2.2-6.8,5.5-6.8c1.9,0,3.4,0.9,4.1,2.4l0,0v-7h2.7v18h-2.6v-2.2l0,0
			c-0.8,1.5-2.3,2.5-4.2,2.5C94.3,58.5,92.1,55.9,92.1,51.8z M94.9,51.8c0,2.8,1.3,4.5,3.5,4.5c2.1,0,3.4-1.8,3.4-4.5
			s-1.4-4.5-3.4-4.5C96.2,47.3,94.9,49,94.9,51.8z"/>
		<path class="st0" d="M118.7,58.3h-2.6v-2.2H116c-0.7,1.6-2.1,2.5-4.1,2.5c-2.9,0-4.6-1.9-4.6-4.9v-8.5h2.7v8c0,2,0.9,3.1,2.8,3.1
			s3.1-1.3,3.1-3.4v-7.6h2.7L118.7,58.3L118.7,58.3z"/>
		<path class="st0" d="M130.3,49.7c-0.3-1.4-1.3-2.5-3.1-2.5c-2.1,0-3.4,1.7-3.4,4.5c0,2.9,1.4,4.5,3.5,4.5c1.7,0,2.7-0.9,3.1-2.4
			h2.6c-0.3,2.8-2.5,4.7-5.7,4.7c-3.7,0-6.2-2.6-6.2-6.8s2.4-6.8,6.2-6.8c3.4,0,5.4,2.2,5.7,4.7h-2.7
			C130.3,49.6,130.3,49.7,130.3,49.7z"/>
		<path class="st0" d="M134.5,54.6c0-2.3,1.8-3.7,4.9-3.9l3.6-0.2v-1c0-1.5-1-2.3-2.6-2.3s-2.5,0.7-2.8,1.9h-2.5
			c0.1-2.4,2.2-4.1,5.4-4.1s5.2,1.7,5.2,4.3v9h-2.6v-2.2H143c-0.8,1.5-2.4,2.4-4.1,2.4C136.3,58.5,134.5,56.9,134.5,54.6z M143,53.4
			v-1l-3.2,0.2c-1.6,0.1-2.5,0.8-2.5,1.9c0,1.1,0.9,1.9,2.4,1.9C141.5,56.4,143,55.1,143,53.4z"/>
		<path class="st0" d="M152,42.1v3.1h2.5v2.1H152v7.3c0,1.1,0.5,1.6,1.6,1.6c0.3,0,0.7,0,0.9-0.1v2.1c-0.3,0.1-0.9,0.1-1.5,0.1
			c-2.7,0-3.7-1-3.7-3.5v-7.5h-1.9v-2.1h1.9v-3.1H152z"/>
		<path class="st0" d="M156.8,41.5c0-0.9,0.7-1.5,1.6-1.5c0.9,0,1.5,0.7,1.5,1.5s-0.7,1.5-1.5,1.5C157.5,43.1,156.8,42.4,156.8,41.5
			z M157,45.2h2.7v13.1H157V45.2z"/>
		<path class="st0" d="M162.1,51.8c0-4.2,2.5-6.8,6.2-6.8s6.2,2.6,6.2,6.8s-2.5,6.8-6.2,6.8S162.1,56,162.1,51.8z M171.8,51.8
			c0-2.9-1.4-4.6-3.5-4.6s-3.5,1.7-3.5,4.6c0,2.9,1.4,4.6,3.5,4.6C170.5,56.3,171.8,54.7,171.8,51.8z"/>
		<path class="st0" d="M176.9,45.2h2.6v2.2h0.1c0.7-1.5,2.1-2.4,4.1-2.4c2.9,0,4.5,1.8,4.5,4.8v8.5h-2.7v-8c0-2-0.9-3.1-2.8-3.1
			c-1.9,0-3.1,1.3-3.1,3.4v7.6h-2.7L176.9,45.2L176.9,45.2z"/>
		<path class="st0" d="M197.7,53.4c0.2,1.8,1.9,2.9,4.3,2.9c2.3,0,3.9-1.2,3.9-2.8c0-1.4-0.9-2.3-3.3-2.8l-2-0.4
			c-3.6-0.8-5.2-2.4-5.2-5c0-3.1,2.7-5.2,6.5-5.2s6.4,2.2,6.5,5.3h-2.7c-0.2-1.8-1.7-2.9-3.8-2.9s-3.6,1-3.6,2.7
			c0,1.3,0.9,2.2,3.2,2.7l2,0.4c3.8,0.8,5.3,2.3,5.3,4.9c0,3.4-2.7,5.5-6.8,5.5s-6.8-2-6.9-5.2h2.6V53.4z"/>
		<path class="st0" d="M223,51.8c0,4.1-2.2,6.8-5.5,6.8c-1.9,0-3.4-0.9-4.1-2.4h-0.1v6.4h-2.7V45.2h2.6v2.3l0,0
			c0.8-1.5,2.3-2.5,4.2-2.5C220.8,45,223,47.6,223,51.8z M220.2,51.8c0-2.7-1.3-4.5-3.5-4.5c-2.1,0-3.4,1.8-3.4,4.5s1.4,4.5,3.4,4.5
			C218.9,56.2,220.2,54.5,220.2,51.8z"/>
		<path class="st0" d="M236.5,54.5c-0.4,2.4-2.6,4.1-5.6,4.1c-3.8,0-6.2-2.6-6.2-6.7s2.4-6.8,6.1-6.8c3.6,0,5.9,2.6,5.9,6.5v0.9
			h-9.3v0.1c0,2.3,1.4,3.8,3.5,3.8c1.5,0,2.7-0.8,3-1.9C233.9,54.5,236.5,54.5,236.5,54.5z M227.4,50.5h6.5c-0.1-2-1.3-3.4-3.2-3.4
			C228.9,47.1,227.6,48.6,227.4,50.5z"/>
		<path class="st0" d="M247.7,49.7c-0.3-1.4-1.3-2.5-3.1-2.5c-2.1,0-3.4,1.7-3.4,4.5c0,2.9,1.4,4.5,3.5,4.5c1.7,0,2.7-0.9,3.1-2.4
			h2.6c-0.3,2.8-2.5,4.7-5.7,4.7c-3.7,0-6.2-2.6-6.2-6.8s2.4-6.8,6.2-6.8c3.4,0,5.4,2.2,5.7,4.7h-2.7L247.7,49.7L247.7,49.7z"/>
		<path class="st0" d="M252.3,41.5c0-0.9,0.7-1.5,1.6-1.5c0.9,0,1.5,0.7,1.5,1.5s-0.7,1.5-1.5,1.5C253,43.1,252.3,42.4,252.3,41.5z
			 M252.5,45.2h2.7v13.1h-2.7V45.2z"/>
		<path class="st0" d="M257.7,54.6c0-2.3,1.8-3.7,4.9-3.9l3.6-0.2v-1c0-1.5-1-2.3-2.6-2.3c-1.6,0-2.5,0.7-2.8,1.9h-2.5
			c0.1-2.4,2.2-4.1,5.4-4.1c3.2,0,5.2,1.7,5.2,4.3v9h-2.6v-2.2h-0.1c-0.8,1.5-2.4,2.4-4.1,2.4C259.5,58.5,257.7,56.9,257.7,54.6z
			 M266.2,53.4v-1l-3.2,0.2c-1.6,0.1-2.5,0.8-2.5,1.9c0,1.1,0.9,1.9,2.4,1.9C264.7,56.4,266.2,55.1,266.2,53.4z"/>
		<path class="st0" d="M271.8,40.3h2.7v18h-2.7V40.3z"/>
		<path class="st0" d="M277.4,41.5c0-0.9,0.7-1.5,1.6-1.5c0.9,0,1.5,0.7,1.5,1.5S279.8,43,279,43C278.1,43.1,277.4,42.4,277.4,41.5z
			 M277.6,45.2h2.7v13.1h-2.7V45.2z"/>
		<path class="st0" d="M287.8,45c3.1,0,5,1.7,5.1,4.1h-2.5c-0.1-1.3-1.1-2.1-2.6-2.1s-2.4,0.7-2.4,1.8c0,0.8,0.6,1.4,2,1.7l2.1,0.5
			c2.7,0.6,3.7,1.7,3.7,3.6c0,2.4-2.2,4-5.3,4c-3.3,0-5.2-1.6-5.5-4.1h2.7c0.2,1.4,1.2,2,2.8,2c1.6,0,2.6-0.7,2.6-1.7
			c0-0.8-0.5-1.3-1.9-1.7l-2.1-0.5c-2.5-0.6-3.7-1.8-3.7-3.7C282.7,46.6,284.8,45,287.8,45z"/>
		<path class="st0" d="M298.9,42.1v3.1h2.5v2.1h-2.5v7.3c0,1.1,0.5,1.6,1.6,1.6c0.3,0,0.7,0,0.9-0.1v2.1c-0.3,0.1-0.9,0.1-1.5,0.1
			c-2.7,0-3.7-1-3.7-3.5v-7.5h-1.9v-2.1h1.9v-3.1H298.9z"/>
	</g>
	<g id="XMLID_1_">
		<path id="XMLID_2_" class="st0" d="M51.7,46.5c-0.1,0.2-1.3,4.5-4.4,9c-2.6,3.8-5.4,7.7-9.7,7.8c-4.2,0.1-5.6-2.5-10.4-2.5
			s-6.3,2.4-10.3,2.6c-4.2,0.2-7.3-4.2-10-8c-5.4-7.8-9.6-22.2-4-31.8c2.8-4.8,7.7-7.8,13.1-7.9c4.1-0.1,7.9,2.7,10.4,2.7
			s7.2-3.4,12.1-2.9c2.1,0.1,7.8,0.8,11.6,6.3c-0.3,0.2-6.9,4-6.8,12C43.3,43.3,51.6,46.5,51.7,46.5z M35.3,10.3
			c2.2-2.7,3.7-6.4,3.3-10.1c-3.2,0.1-7,2.1-9.3,4.8c-2,2.4-3.8,6.1-3.4,9.8C29.5,15,33.1,12.9,35.3,10.3z"/>
	</g>
</g>
</svg>
