<?xml version="1.0" encoding="utf-8"?>
<!-- Generator: Adobe Illustrator 24.1.2, SVG Export Plug-In . SVG Version: 6.00 Build 0)  -->
<svg version="1.1" id="Layer_1" xmlns="http://www.w3.org/2000/svg" xmlns:xlink="http://www.w3.org/1999/xlink" x="0px" y="0px"
	 viewBox="0 0 226.8 63.2" style="enable-background:new 0 0 226.8 63.2;" xml:space="preserve">
<style type="text/css">
	.st0{fill:#D1D1D1;}
</style>
<g>
	<path class="st0" d="M87.2,33.5l-1.7-5H80l-1.7,5h-1.8L81.7,18h2l5.2,15.5H87.2z M80.4,27.1h4.8l-1.6-4.6c-0.1-0.3-0.2-0.7-0.4-1.2
		s-0.3-1-0.4-1.7l0,0c-0.2,0.6-0.3,1.2-0.4,1.6c-0.1,0.5-0.2,0.9-0.4,1.2L80.4,27.1z"/>
	<path class="st0" d="M98.5,33.5v-1.8h-0.2c-0.8,1.4-2,2.1-3.6,2.1c-1.2,0-2.1-0.4-2.7-1.2s-1-2-1-3.6v-6.5h1.7v6.2
		c0,2.5,0.8,3.7,2.5,3.7c0.4,0,0.8-0.1,1.1-0.2s0.7-0.4,0.9-0.6c0.3-0.3,0.5-0.6,0.6-1c0.2-0.4,0.2-0.8,0.2-1.2v-6.9h1.7v8.2
		c0,0.5,0,1,0,1.5s0,1,0.1,1.5h-1.3V33.5z"/>
	<path class="st0" d="M108.4,23.7h-2.9V30c0,1.5,0.5,2.2,1.5,2.2c0.5,0,0.9-0.1,1.2-0.2l0.1,1.4c-0.5,0.2-1,0.3-1.7,0.3
		c-0.9,0-1.6-0.3-2.1-0.8c-0.5-0.6-0.7-1.5-0.7-2.8v-6.3h-1.7v-1.4h1.7v-2l1.7-0.6v2.6h2.9V23.7z"/>
	<path class="st0" d="M119.8,33.5H118V27c0-2.3-0.9-3.4-2.6-3.4c-0.4,0-0.8,0.1-1.1,0.3c-0.4,0.2-0.7,0.4-0.9,0.7
		c-0.3,0.3-0.5,0.6-0.6,1c-0.2,0.4-0.2,0.8-0.2,1.2v6.8h-1.7V17.3h1.7v7l0,0c0.4-0.6,0.8-1.1,1.5-1.5c0.6-0.4,1.3-0.5,2-0.5
		c1.1,0,2.1,0.4,2.8,1.2s1,2,1,3.4L119.8,33.5L119.8,33.5z"/>
	<path class="st0" d="M132.8,27.8c0,0.9-0.1,1.7-0.4,2.4s-0.6,1.3-1.1,1.9c-0.5,0.5-1,0.9-1.7,1.2s-1.4,0.4-2.2,0.4
		s-1.5-0.1-2.1-0.4s-1.2-0.7-1.6-1.2c-0.5-0.5-0.8-1.1-1.1-1.8c-0.3-0.7-0.4-1.5-0.4-2.3c0-0.9,0.1-1.6,0.4-2.4
		c0.3-0.7,0.6-1.3,1.1-1.9s1-0.9,1.7-1.2s1.4-0.4,2.2-0.4s1.5,0.1,2.1,0.4s1.2,0.7,1.6,1.2c0.5,0.5,0.8,1.1,1,1.8
		C132.7,26.3,132.8,27,132.8,27.8z M131,27.9c0-0.6-0.1-1.2-0.2-1.7c-0.2-0.5-0.4-1-0.7-1.4s-0.7-0.7-1.1-0.9s-0.9-0.3-1.4-0.3
		s-1,0.1-1.4,0.3s-0.8,0.5-1.1,0.9s-0.5,0.9-0.7,1.4s-0.2,1.1-0.2,1.8c0,0.6,0.1,1.2,0.3,1.7s0.4,1,0.7,1.4s0.7,0.7,1.1,1
		c0.4,0.2,0.9,0.4,1.4,0.4s1-0.1,1.4-0.3s0.8-0.5,1.1-1c0.3-0.4,0.5-0.9,0.7-1.4C130.9,29.1,131,28.5,131,27.9z"/>
	<path class="st0" d="M140.6,23.9c-0.1,0-0.2,0-0.3,0s-0.2,0-0.3,0c-0.4,0-0.8,0.1-1.1,0.3c-0.3,0.2-0.6,0.4-0.9,0.8
		c-0.2,0.3-0.4,0.7-0.6,1.2c-0.1,0.5-0.2,0.9-0.2,1.5v6h-1.7V26c0-0.6,0-1.1,0-1.7s0-1.1-0.1-1.7h1.5v2.2h0.1
		c0.3-0.7,0.7-1.3,1.2-1.8c0.5-0.4,1.2-0.7,1.9-0.7c0.1,0,0.2,0,0.3,0s0.2,0,0.2,0L140.6,23.9L140.6,23.9z"/>
	<path class="st0" d="M144.7,19.1c0,0.4-0.1,0.6-0.3,0.9c-0.2,0.2-0.5,0.3-0.9,0.3c-0.3,0-0.6-0.1-0.8-0.3c-0.2-0.2-0.3-0.5-0.3-0.9
		c0-0.3,0.1-0.6,0.3-0.9c0.2-0.2,0.5-0.3,0.8-0.3c0.4,0,0.6,0.1,0.9,0.3C144.6,18.4,144.7,18.7,144.7,19.1z M144.4,33.5h-1.7V22.4
		h1.7V33.5z"/>
	<path class="st0" d="M155.2,33.5h-8.7v-1l5.2-6.9c0.1-0.2,0.3-0.4,0.5-0.7s0.5-0.6,0.9-1l0,0H147v-1.4h8.2v1.1l-5.1,6.9
		c-0.2,0.3-0.4,0.6-0.7,0.9c-0.2,0.3-0.4,0.5-0.7,0.8l0,0h6.5L155.2,33.5L155.2,33.5z"/>
	<path class="st0" d="M165.8,27.3c0,0.4,0,0.7-0.1,0.9H158c0,1.3,0.4,2.3,1,3.1c0.7,0.7,1.6,1.1,2.8,1.1c1.1,0,2.1-0.2,3-0.6
		l0.3,1.3c-1,0.5-2.2,0.7-3.6,0.7c-0.8,0-1.6-0.1-2.2-0.4c-0.7-0.3-1.2-0.7-1.7-1.2s-0.8-1.1-1-1.8s-0.4-1.4-0.4-2.3
		s0.1-1.7,0.4-2.4c0.2-0.7,0.6-1.4,1-1.9s1-0.9,1.6-1.2c0.6-0.3,1.3-0.4,2.1-0.4c0.7,0,1.3,0.1,1.9,0.4c0.5,0.3,1,0.6,1.4,1.1
		s0.7,1,0.9,1.6C165.7,25.9,165.8,26.5,165.8,27.3z M164,26.9c0-1.1-0.2-1.9-0.7-2.5s-1.2-0.9-2.1-0.9c-0.9,0-1.6,0.3-2.1,1
		c-0.6,0.6-0.9,1.5-1,2.5L164,26.9L164,26.9z"/>
	<path class="st0" d="M176,33.5v-1.9h-0.1c-0.7,1.5-2,2.2-3.7,2.2c-0.7,0-1.3-0.1-1.9-0.4s-1.1-0.7-1.5-1.2s-0.7-1.1-1-1.8
		c-0.2-0.7-0.4-1.4-0.4-2.3s0.1-1.7,0.4-2.4s0.6-1.4,1-1.9s1-0.9,1.6-1.2c0.6-0.3,1.3-0.4,2-0.4c1.6,0,2.7,0.6,3.3,1.7l0,0v-6.7h1.7
		v13.5c0,0.5,0,1,0,1.4c0,0.5,0,0.9,0.1,1.3H176V33.5z M175.8,26.9c0-0.5-0.1-0.9-0.2-1.3s-0.4-0.8-0.6-1.1c-0.3-0.3-0.6-0.5-1-0.7
		c-0.4-0.2-0.8-0.2-1.2-0.2c-0.5,0-1,0.1-1.4,0.3s-0.8,0.5-1.1,0.9c-0.3,0.4-0.5,0.9-0.7,1.4c-0.2,0.6-0.2,1.2-0.2,1.8
		s0.1,1.2,0.2,1.8c0.2,0.5,0.4,1,0.7,1.4c0.3,0.4,0.6,0.7,1.1,0.9s0.9,0.3,1.4,0.3s0.9-0.1,1.3-0.3c0.4-0.2,0.7-0.4,1-0.7
		c0.3-0.3,0.5-0.7,0.6-1.1s0.2-0.8,0.2-1.3L175.8,26.9L175.8,26.9z"/>
</g>
<g>
	<path class="st0" d="M85.9,56.9c0,0.7-0.1,1.3-0.4,1.8s-0.6,1-1,1.4s-1,0.7-1.6,0.9s-1.4,0.3-2.2,0.3c-1.6,0-2.9-0.3-3.8-1l0.5-1.4
		c1,0.6,2.2,1,3.4,1c1.1,0,1.9-0.3,2.5-0.8s0.9-1.2,0.9-2s-0.2-1.4-0.7-1.9s-1.2-0.9-2.2-1.3c-2.7-1-4-2.5-4-4.4
		c0-0.6,0.1-1.1,0.4-1.7c0.2-0.5,0.6-0.9,1-1.3s0.9-0.7,1.5-0.9s1.2-0.3,1.9-0.3c1.3,0,2.4,0.2,3.3,0.7l-0.5,1.4
		c-0.8-0.5-1.7-0.7-2.8-0.7c-0.9,0-1.6,0.2-2.2,0.7c-0.6,0.4-0.8,1-0.8,1.8c0,0.4,0,0.7,0.1,0.9c0.1,0.3,0.3,0.5,0.5,0.8
		s0.5,0.5,0.9,0.7s0.9,0.5,1.5,0.7c0.7,0.3,1.3,0.6,1.8,0.9s0.9,0.7,1.2,1c0.3,0.4,0.5,0.8,0.7,1.2C85.8,55.9,85.9,56.4,85.9,56.9z"
		/>
	<path class="st0" d="M97.4,54.9c0,0.4,0,0.7-0.1,0.9h-7.7c0,1.3,0.4,2.3,1,3.1c0.7,0.7,1.6,1.1,2.8,1.1c1.1,0,2.1-0.2,3-0.6
		l0.3,1.3c-1,0.5-2.2,0.7-3.6,0.7c-0.8,0-1.6-0.1-2.2-0.4c-0.7-0.3-1.2-0.7-1.7-1.2s-0.8-1.1-1-1.8s-0.4-1.4-0.4-2.3
		s0.1-1.7,0.4-2.4c0.2-0.7,0.6-1.4,1-1.9s1-0.9,1.6-1.2s1.3-0.4,2.1-0.4c0.7,0,1.3,0.1,1.9,0.4c0.5,0.3,1,0.6,1.4,1.1s0.7,1,0.9,1.6
		S97.4,54.1,97.4,54.9z M95.6,54.5c0-1.1-0.2-1.9-0.7-2.5s-1.2-0.9-2.1-0.9s-1.6,0.3-2.1,1c-0.6,0.6-0.9,1.5-1,2.5L95.6,54.5
		L95.6,54.5z"/>
	<path class="st0" d="M105.1,51.5c-0.1,0-0.2,0-0.3,0s-0.2,0-0.3,0c-0.4,0-0.8,0.1-1.1,0.3c-0.3,0.2-0.6,0.4-0.9,0.8
		c-0.2,0.3-0.4,0.7-0.6,1.2c-0.1,0.5-0.2,0.9-0.2,1.5v6H100v-7.7c0-0.6,0-1.1,0-1.7s0-1.1-0.1-1.7h1.5v2.2h0.1
		c0.3-0.7,0.7-1.3,1.2-1.8c0.5-0.4,1.2-0.7,1.9-0.7c0.1,0,0.2,0,0.3,0s0.2,0,0.2,0L105.1,51.5L105.1,51.5z"/>
	<path class="st0" d="M116.5,50l-4.3,11.1h-1.6L106.4,50h1.9l2.2,6.4c0.2,0.6,0.4,1.2,0.6,1.6c0.2,0.5,0.3,0.9,0.4,1.2l0,0
		c0.1-0.3,0.2-0.7,0.3-1.1s0.4-1,0.6-1.7l2.3-6.4H116.5z"/>
	<path class="st0" d="M120.4,46.7c0,0.4-0.1,0.6-0.3,0.9c-0.2,0.2-0.5,0.3-0.9,0.3c-0.3,0-0.6-0.1-0.8-0.3c-0.2-0.2-0.3-0.5-0.3-0.9
		c0-0.3,0.1-0.6,0.3-0.9c0.2-0.2,0.5-0.3,0.8-0.3c0.4,0,0.6,0.1,0.9,0.3C120.3,46,120.5,46.3,120.4,46.7z M120.1,61.1h-1.7V50h1.7
		V61.1z"/>
	<path class="st0" d="M130.8,51.7c-0.7-0.4-1.5-0.6-2.3-0.6c-0.6,0-1.2,0.1-1.7,0.3s-0.9,0.5-1.2,0.9s-0.6,0.9-0.8,1.4
		s-0.3,1.1-0.3,1.7s0.1,1.2,0.3,1.8c0.2,0.5,0.5,1,0.8,1.4s0.8,0.7,1.2,0.9c0.5,0.2,1,0.3,1.6,0.3c0.8,0,1.6-0.2,2.5-0.6l0.3,1.3
		c-0.9,0.4-1.9,0.6-3.1,0.6c-0.8,0-1.5-0.1-2.2-0.4s-1.2-0.7-1.7-1.1c-0.5-0.5-0.8-1.1-1.1-1.8c-0.3-0.7-0.4-1.5-0.4-2.3
		c0-0.9,0.1-1.7,0.4-2.4s0.7-1.3,1.2-1.9c0.5-0.5,1.1-0.9,1.8-1.2c0.7-0.3,1.5-0.4,2.4-0.4c1.1,0,2,0.2,2.8,0.6L130.8,51.7z"/>
	<path class="st0" d="M142.1,54.9c0,0.4,0,0.7-0.1,0.9h-7.7c0,1.3,0.4,2.3,1,3.1c0.7,0.7,1.6,1.1,2.8,1.1c1.1,0,2.1-0.2,3-0.6
		l0.3,1.3c-1,0.5-2.2,0.7-3.6,0.7c-0.8,0-1.6-0.1-2.2-0.4c-0.7-0.3-1.2-0.7-1.7-1.2s-0.8-1.1-1-1.8s-0.4-1.4-0.4-2.3
		s0.1-1.7,0.4-2.4c0.2-0.7,0.6-1.4,1-1.9s1-0.9,1.6-1.2s1.3-0.4,2.1-0.4c0.7,0,1.3,0.1,1.9,0.4c0.5,0.3,1,0.6,1.4,1.1s0.7,1,0.9,1.6
		S142.1,54.1,142.1,54.9z M140.4,54.5c0-1.1-0.2-1.9-0.7-2.5s-1.2-0.9-2.1-0.9s-1.6,0.3-2.1,1c-0.6,0.6-0.9,1.5-1,2.5L140.4,54.5
		L140.4,54.5z"/>
	<path class="st0" d="M159.4,49.9c0,0.8-0.1,1.5-0.4,2.1s-0.7,1.1-1.2,1.6c-0.5,0.4-1.1,0.7-1.8,1s-1.5,0.3-2.3,0.3
		s-1.3-0.1-1.6-0.2V61h-1.7V45.7c0.6-0.1,1.1-0.2,1.7-0.2s1.2-0.1,1.9-0.1c1.8,0,3.2,0.4,4.1,1.2C159,47.5,159.4,48.6,159.4,49.9z
		 M157.7,50.1c0-1.1-0.3-1.9-1-2.4s-1.6-0.8-2.7-0.8c-0.8,0-1.4,0.1-1.9,0.2v6.3c0.4,0.1,1,0.2,1.7,0.2c1.2,0,2.2-0.3,2.9-0.9
		C157.3,52,157.7,51.2,157.7,50.1z"/>
	<path class="st0" d="M166.9,51.5c-0.1,0-0.2,0-0.3,0s-0.2,0-0.3,0c-0.4,0-0.8,0.1-1.1,0.3c-0.3,0.2-0.6,0.4-0.9,0.8
		c-0.2,0.3-0.4,0.7-0.6,1.2c-0.1,0.5-0.2,0.9-0.2,1.5v6h-1.7v-7.7c0-0.6,0-1.1,0-1.7s0-1.1-0.1-1.7h1.5v2.2h0.1
		c0.3-0.7,0.7-1.3,1.2-1.8c0.5-0.4,1.2-0.7,1.9-0.7c0.1,0,0.2,0,0.3,0c0.1,0,0.2,0,0.2,0V51.5z"/>
	<path class="st0" d="M178.4,55.4c0,0.9-0.1,1.7-0.4,2.4s-0.6,1.3-1.1,1.9c-0.5,0.5-1,0.9-1.7,1.2c-0.7,0.3-1.4,0.4-2.2,0.4
		c-0.8,0-1.5-0.1-2.1-0.4s-1.2-0.7-1.6-1.2c-0.5-0.5-0.8-1.1-1.1-1.8c-0.3-0.7-0.4-1.5-0.4-2.3c0-0.9,0.1-1.6,0.4-2.4
		c0.3-0.7,0.6-1.3,1.1-1.9s1-0.9,1.7-1.2c0.7-0.3,1.4-0.4,2.2-0.4c0.8,0,1.5,0.1,2.1,0.4s1.2,0.7,1.6,1.2c0.5,0.5,0.8,1.1,1,1.8
		C178.3,53.9,178.4,54.6,178.4,55.4z M176.6,55.5c0-0.6-0.1-1.2-0.2-1.7c-0.2-0.5-0.4-1-0.7-1.4c-0.3-0.4-0.7-0.7-1.1-0.9
		s-0.9-0.3-1.4-0.3s-1,0.1-1.4,0.3s-0.8,0.5-1.1,0.9c-0.3,0.4-0.5,0.9-0.7,1.4c-0.2,0.5-0.2,1.1-0.2,1.8c0,0.6,0.1,1.2,0.3,1.7
		c0.2,0.5,0.4,1,0.7,1.4c0.3,0.4,0.7,0.7,1.1,1c0.4,0.2,0.9,0.4,1.4,0.4s1-0.1,1.4-0.3s0.8-0.5,1.1-1c0.3-0.4,0.5-0.9,0.7-1.4
		C176.5,56.7,176.6,56.1,176.6,55.5z"/>
	<path class="st0" d="M189.5,50l-4.3,11.1h-1.6L179.4,50h1.9l2.2,6.4c0.2,0.6,0.4,1.2,0.6,1.6c0.2,0.5,0.3,0.9,0.4,1.2l0,0
		c0.1-0.3,0.2-0.7,0.3-1.1s0.4-1,0.6-1.7l2.3-6.4H189.5z"/>
	<path class="st0" d="M193.5,46.7c0,0.4-0.1,0.6-0.3,0.9c-0.2,0.2-0.5,0.3-0.9,0.3c-0.3,0-0.6-0.1-0.8-0.3c-0.2-0.2-0.3-0.5-0.3-0.9
		c0-0.3,0.1-0.6,0.3-0.9c0.2-0.2,0.5-0.3,0.8-0.3c0.4,0,0.6,0.1,0.9,0.3C193.4,46,193.5,46.3,193.5,46.7z M193.2,61.1h-1.7V50h1.7
		V61.1z"/>
	<path class="st0" d="M204.3,61.1v-1.9h-0.1c-0.7,1.5-2,2.2-3.7,2.2c-0.7,0-1.3-0.1-1.9-0.4s-1.1-0.7-1.5-1.2s-0.7-1.1-1-1.8
		c-0.2-0.7-0.4-1.4-0.4-2.3s0.1-1.7,0.4-2.4s0.6-1.4,1-1.9s1-0.9,1.6-1.2c0.6-0.3,1.3-0.4,2-0.4c1.6,0,2.7,0.6,3.3,1.7l0,0v-6.7h1.7
		v13.5c0,0.5,0,1,0,1.4c0,0.5,0,0.9,0.1,1.3L204.3,61.1L204.3,61.1z M204,54.5c0-0.5-0.1-0.9-0.2-1.3s-0.4-0.8-0.6-1.1
		c-0.3-0.3-0.6-0.5-1-0.7c-0.4-0.2-0.8-0.2-1.2-0.2c-0.5,0-1,0.1-1.4,0.3s-0.8,0.5-1.1,0.9c-0.3,0.4-0.5,0.9-0.7,1.4
		c-0.2,0.6-0.2,1.2-0.2,1.8s0.1,1.2,0.2,1.8c0.2,0.5,0.4,1,0.7,1.4c0.3,0.4,0.6,0.7,1.1,0.9s0.9,0.3,1.4,0.3s0.9-0.1,1.3-0.3
		c0.4-0.2,0.7-0.4,1-0.7c0.3-0.3,0.5-0.7,0.6-1.1s0.2-0.8,0.2-1.3L204,54.5L204,54.5z"/>
	<path class="st0" d="M217.8,54.9c0,0.4,0,0.7-0.1,0.9H210c0,1.3,0.4,2.3,1,3.1c0.7,0.7,1.6,1.1,2.8,1.1c1.1,0,2.1-0.2,3-0.6
		l0.3,1.3c-1,0.5-2.2,0.7-3.6,0.7c-0.8,0-1.6-0.1-2.2-0.4c-0.7-0.3-1.2-0.7-1.7-1.2s-0.8-1.1-1-1.8c-0.2-0.7-0.4-1.4-0.4-2.3
		s0.1-1.7,0.4-2.4c0.2-0.7,0.6-1.4,1-1.9c0.4-0.5,1-0.9,1.6-1.2s1.3-0.4,2.1-0.4c0.7,0,1.3,0.1,1.9,0.4c0.5,0.3,1,0.6,1.4,1.1
		c0.4,0.5,0.7,1,0.9,1.6S217.8,54.1,217.8,54.9z M216.1,54.5c0-1.1-0.2-1.9-0.7-2.5s-1.2-0.9-2.1-0.9s-1.6,0.3-2.1,1
		c-0.6,0.6-0.9,1.5-1,2.5L216.1,54.5L216.1,54.5z"/>
	<path class="st0" d="M225.6,51.5c-0.1,0-0.2,0-0.3,0c-0.1,0-0.2,0-0.3,0c-0.4,0-0.8,0.1-1.1,0.3c-0.3,0.2-0.6,0.4-0.9,0.8
		c-0.2,0.3-0.4,0.7-0.6,1.2c-0.1,0.5-0.2,0.9-0.2,1.5v6h-1.7v-7.7c0-0.6,0-1.1,0-1.7s0-1.1-0.1-1.7h1.5v2.2h0.1
		c0.3-0.7,0.7-1.3,1.2-1.8c0.5-0.4,1.2-0.7,1.9-0.7c0.1,0,0.2,0,0.3,0c0.1,0,0.2,0,0.2,0S225.6,51.5,225.6,51.5z"/>
</g>
<path class="st0" d="M51.6,46.3c-0.1,0.2-1.3,4.5-4.4,9c-2.6,3.9-5.4,7.7-9.7,7.8c-4.2,0.1-5.6-2.5-10.4-2.5
	c-4.8,0-6.4,2.4-10.4,2.6c-4.2,0.2-7.3-4.2-10-8c-5.4-7.8-9.6-22.2-4-31.8c2.8-4.8,7.7-7.8,13.1-7.9c4.1-0.1,7.9,2.7,10.4,2.7
	s7.2-3.4,12.1-2.9c2.1,0.1,7.8,0.8,11.6,6.3c-0.3,0.2-6.9,4-6.8,12C43.2,43,51.5,46.2,51.6,46.3 M35.1,10c2.2-2.7,3.7-6.4,3.3-10.1
	c-3.2,0.1-7,2.1-9.3,4.8c-2,2.4-3.8,6.2-3.4,9.8C29.3,14.7,32.9,12.7,35.1,10z"/>
</svg>
