<?xml version="1.0" encoding="utf-8"?>
<!-- Generator: Adobe Illustrator 28.0.0, SVG Export Plug-In . SVG Version: 6.00 Build 0)  -->
<svg version="1.1" id="Layer_1" xmlns="http://www.w3.org/2000/svg" xmlns:xlink="http://www.w3.org/1999/xlink" x="0px" y="0px"
	 viewBox="0 0 134.3 63.2" style="enable-background:new 0 0 134.3 63.2;" xml:space="preserve">
<style type="text/css">
	.st0{fill:#D1D1D1;}
</style>
<g>
	<path class="st0" d="M116.3,1.4c2.1,0,3.4,0,4.4,0c1,0,1.7,0,2.2,0c1,0,1.8,0.1,2.4,0.2c1.1,0.2,2,0.4,2.8,0.8
		c0.8,0.4,1.5,0.9,2.2,1.5c0.6,0.6,1.1,1.4,1.5,2.2c0.4,0.8,0.6,1.7,0.8,2.8c0.1,0.6,0.2,1.4,0.2,2.4c0,0.5,0,1.2,0,2.2
		c0,1,0,2.3,0,4.4v27c0,2.1,0,3.4,0,4.4c0,1,0,1.7,0,2.2c0,1-0.1,1.8-0.2,2.4c-0.2,1.1-0.4,2-0.8,2.8c-0.4,0.8-0.9,1.5-1.5,2.2
		c-0.6,0.6-1.4,1.1-2.2,1.5c-0.8,0.4-1.7,0.6-2.8,0.8c-0.6,0.1-1.4,0.2-2.4,0.2c-0.5,0-1.2,0-2.2,0c-1,0-2.3,0-4.4,0H18
		c-2.1,0-3.4,0-4.4,0c-1,0-1.7,0-2.2,0c-1,0-1.8-0.1-2.4-0.2c-1.1-0.2-2-0.4-2.8-0.8c-0.8-0.4-1.5-0.9-2.2-1.5s-1.1-1.4-1.5-2.2
		c-0.4-0.8-0.6-1.7-0.8-2.8c-0.1-0.6-0.2-1.4-0.2-2.4c0-0.5,0-1.2,0-2.2c0-1,0-2.3,0-4.4V18c0-2.1,0-3.4,0-4.4c0-1,0-1.7,0-2.2
		c0-1,0.1-1.8,0.2-2.4c0.2-1.1,0.4-2,0.8-2.8c0.4-0.8,0.9-1.5,1.5-2.2c0.6-0.6,1.4-1.1,2.2-1.5C6.9,2,7.8,1.8,8.9,1.6
		c0.6-0.1,1.4-0.2,2.4-0.2c0.5,0,1.2,0,2.2,0c1,0,2.3,0,4.4,0H116.3 M116.3,0L116.3,0L116.3,0H18c-2.1,0-3.4,0-4.4,0
		c-1,0-1.7,0-2.3,0c-1.1,0-1.9,0.1-2.6,0.2C7.5,0.4,6.5,0.7,5.5,1.2C4.6,1.6,3.7,2.2,3,3C2.2,3.7,1.6,4.6,1.2,5.5
		c-0.5,1-0.7,2-0.9,3.2c-0.1,0.7-0.2,1.5-0.2,2.6c0,0.6,0,1.3,0,2.3c0,1,0,2.3,0,4.4V45c0,2.1,0,3.4,0,4.4c0,1,0,1.7,0,2.3
		c0,1.1,0.1,1.9,0.2,2.6c0.2,1.2,0.5,2.2,0.9,3.2C1.6,58.4,2.2,59.3,3,60c0.7,0.7,1.6,1.3,2.5,1.8c1,0.5,2,0.8,3.2,0.9
		c0.7,0.1,1.5,0.2,2.6,0.2c0.6,0,1.3,0,2.3,0c1,0,2.3,0,4.4,0h98.3c2.1,0,3.4,0,4.4,0c1,0,1.7,0,2.3,0c1.1,0,1.9-0.1,2.6-0.2
		c1.2-0.2,2.2-0.5,3.2-0.9c0.9-0.5,1.8-1.1,2.5-1.8c0.7-0.7,1.3-1.6,1.8-2.5c0.5-1,0.7-2,0.9-3.2c0.1-0.7,0.2-1.5,0.2-2.6
		c0-0.6,0-1.3,0-2.3c0-1,0-2.3,0-4.4V18c0-2.1,0-3.4,0-4.4c0-1,0-1.7,0-2.3c0-1.1-0.1-1.9-0.2-2.6c-0.2-1.2-0.5-2.2-0.9-3.2
		c-0.5-0.9-1.1-1.8-1.8-2.5c-0.7-0.7-1.6-1.3-2.5-1.8c-1-0.5-2-0.8-3.2-0.9c-0.7-0.1-1.5-0.2-2.6-0.2c-0.6,0-1.3,0-2.3,0
		C119.7,0,118.4,0,116.3,0L116.3,0z"/>
	<g>
		<path class="st0" d="M55.6,29V17.9h4.1c0.5,0,1,0.1,1.5,0.3c0.5,0.2,0.8,0.4,1.2,0.7s0.6,0.7,0.8,1.2c0.2,0.4,0.3,0.9,0.3,1.5v0
			c0,0.5-0.1,1-0.3,1.5c-0.2,0.4-0.4,0.8-0.8,1.2c-0.3,0.3-0.7,0.6-1.2,0.8c-0.5,0.2-1,0.3-1.5,0.3h-2.4V29H55.6z M59.3,19.4h-2v4.4
			h2c0.8,0,1.3-0.2,1.7-0.6c0.4-0.4,0.6-0.9,0.6-1.6v0c0-0.7-0.2-1.2-0.6-1.6C60.6,19.6,60,19.4,59.3,19.4z"/>
		<path class="st0" d="M65,29v-8.1h1.7v1.4h0c0.1-0.5,0.4-0.8,0.7-1.1c0.3-0.3,0.7-0.4,1.2-0.4c0.1,0,0.2,0,0.3,0c0.1,0,0.2,0,0.3,0
			v1.6c-0.1,0-0.2,0-0.3-0.1c-0.1,0-0.3,0-0.4,0c-0.5,0-1,0.2-1.3,0.5c-0.3,0.3-0.5,0.8-0.5,1.4V29H65z"/>
		<path class="st0" d="M73.8,29.2c-0.8,0-1.5-0.2-2-0.5c-0.6-0.3-1-0.8-1.3-1.5C70.1,26.6,70,25.9,70,25v0c0-0.6,0.1-1.2,0.3-1.7
			c0.2-0.5,0.4-1,0.8-1.3c0.3-0.4,0.7-0.7,1.2-0.9c0.5-0.2,1-0.3,1.5-0.3c0.8,0,1.4,0.2,2,0.5s1,0.8,1.3,1.4
			c0.3,0.6,0.4,1.3,0.4,2.1v0.6h-5.7c0,0.8,0.2,1.4,0.6,1.8c0.4,0.4,0.9,0.6,1.6,0.6c0.3,0,0.6-0.1,0.9-0.2c0.3-0.1,0.5-0.2,0.6-0.4
			c0.2-0.2,0.3-0.4,0.4-0.6l0-0.1h1.6l0,0.1c-0.1,0.3-0.2,0.6-0.4,0.9c-0.2,0.3-0.4,0.6-0.7,0.8c-0.3,0.2-0.6,0.4-1,0.5
			C74.7,29.1,74.3,29.2,73.8,29.2z M73.7,22.1c-0.4,0-0.7,0.1-1,0.2c-0.3,0.2-0.5,0.4-0.7,0.7s-0.3,0.7-0.4,1.1h4.1
			c-0.1-0.7-0.3-1.2-0.6-1.6C74.7,22.3,74.3,22.1,73.7,22.1z"/>
		<path class="st0" d="M79.1,29v-8.1h1.7v1.3h0c0.2-0.4,0.5-0.8,0.9-1c0.4-0.3,0.9-0.4,1.4-0.4c0.6,0,1,0.1,1.4,0.4
			c0.4,0.3,0.7,0.7,0.8,1.2h0c0.2-0.5,0.5-0.9,1-1.2c0.4-0.3,1-0.4,1.5-0.4c0.5,0,1,0.1,1.4,0.3c0.4,0.2,0.7,0.5,0.9,0.9
			c0.2,0.4,0.3,0.9,0.3,1.4V29h-1.7v-5.2c0-0.5-0.1-0.9-0.4-1.2c-0.3-0.3-0.7-0.4-1.1-0.4c-0.3,0-0.6,0.1-0.9,0.2
			c-0.3,0.2-0.4,0.4-0.6,0.6c-0.1,0.3-0.2,0.6-0.2,0.9V29h-1.6v-5.3c0-0.5-0.1-0.8-0.4-1.1c-0.3-0.3-0.6-0.4-1.1-0.4
			c-0.3,0-0.6,0.1-0.9,0.2c-0.3,0.2-0.5,0.4-0.6,0.7c-0.1,0.3-0.2,0.6-0.2,0.9v5H79.1z"/>
		<path class="st0" d="M93.4,19.7c-0.2,0-0.3,0-0.5-0.1c-0.1-0.1-0.3-0.2-0.4-0.3c-0.1-0.1-0.1-0.3-0.1-0.5c0-0.2,0-0.3,0.1-0.5
			c0.1-0.1,0.2-0.3,0.4-0.3c0.1-0.1,0.3-0.1,0.5-0.1c0.2,0,0.4,0,0.5,0.1c0.1,0.1,0.3,0.2,0.3,0.3c0.1,0.1,0.1,0.3,0.1,0.5
			c0,0.2,0,0.3-0.1,0.5c-0.1,0.1-0.2,0.3-0.3,0.3C93.7,19.6,93.6,19.7,93.4,19.7z M92.5,29v-8.1h1.7V29H92.5z"/>
		<path class="st0" d="M99.1,29.2c-0.6,0-1.1-0.1-1.5-0.4c-0.4-0.2-0.7-0.6-1-1c-0.2-0.4-0.3-1-0.3-1.6v-5.3H98v4.9
			c0,0.6,0.1,1.1,0.4,1.4c0.3,0.3,0.7,0.5,1.3,0.5c0.4,0,0.7-0.1,1-0.3c0.3-0.2,0.5-0.4,0.7-0.7c0.2-0.3,0.2-0.7,0.2-1.1v-4.7h1.7
			V29h-1.7v-1.2h0c-0.2,0.4-0.5,0.7-0.9,1C100.2,29.1,99.7,29.2,99.1,29.2z"/>
		<path class="st0" d="M105.2,29v-8.1h1.7v1.3h0c0.2-0.4,0.5-0.8,0.9-1c0.4-0.3,0.9-0.4,1.4-0.4c0.6,0,1,0.1,1.4,0.4
			c0.4,0.3,0.7,0.7,0.8,1.2h0c0.2-0.5,0.5-0.9,1-1.2c0.4-0.3,1-0.4,1.5-0.4c0.5,0,1,0.1,1.4,0.3c0.4,0.2,0.7,0.5,0.9,0.9
			c0.2,0.4,0.3,0.9,0.3,1.4V29H115v-5.2c0-0.5-0.1-0.9-0.4-1.2c-0.3-0.3-0.7-0.4-1.1-0.4c-0.3,0-0.6,0.1-0.9,0.2
			c-0.3,0.2-0.4,0.4-0.6,0.6c-0.1,0.3-0.2,0.6-0.2,0.9V29h-1.6v-5.3c0-0.5-0.1-0.8-0.4-1.1c-0.3-0.3-0.6-0.4-1.1-0.4
			c-0.3,0-0.6,0.1-0.9,0.2c-0.3,0.2-0.5,0.4-0.6,0.7c-0.1,0.3-0.2,0.6-0.2,0.9v5H105.2z"/>
		<path class="st0" d="M55.6,45.5V34.4h4.1c0.5,0,1,0.1,1.5,0.3c0.5,0.2,0.8,0.4,1.2,0.7s0.6,0.7,0.8,1.2c0.2,0.4,0.3,0.9,0.3,1.5v0
			c0,0.5-0.1,1-0.3,1.5c-0.2,0.4-0.4,0.8-0.8,1.2c-0.3,0.3-0.7,0.6-1.2,0.8c-0.5,0.2-1,0.3-1.5,0.3h-2.4v3.8H55.6z M59.3,35.8h-2
			v4.4h2c0.8,0,1.3-0.2,1.7-0.6c0.4-0.4,0.6-0.9,0.6-1.6v0c0-0.7-0.2-1.2-0.6-1.6C60.6,36,60,35.8,59.3,35.8z"/>
		<path class="st0" d="M67,45.6c-0.5,0-1-0.1-1.4-0.3c-0.4-0.2-0.7-0.5-0.9-0.9c-0.2-0.4-0.3-0.8-0.3-1.3v0c0-0.7,0.3-1.3,0.8-1.7
			c0.5-0.4,1.3-0.7,2.2-0.7l2.2-0.1V40c0-0.4-0.1-0.8-0.4-1.1c-0.3-0.3-0.7-0.4-1.2-0.4c-0.5,0-0.9,0.1-1.2,0.3s-0.5,0.5-0.5,0.8
			l0,0.1h-1.6l0-0.1c0-0.5,0.2-0.9,0.5-1.3c0.3-0.4,0.7-0.7,1.1-0.9c0.5-0.2,1.1-0.3,1.7-0.3c0.7,0,1.2,0.1,1.7,0.3
			c0.5,0.2,0.9,0.5,1.1,0.9c0.3,0.4,0.4,0.9,0.4,1.4v5.6h-1.7v-1.3h0c-0.2,0.4-0.6,0.8-1,1C68,45.5,67.5,45.6,67,45.6z M65.9,43.2
			c0,0.4,0.1,0.6,0.4,0.8c0.3,0.2,0.6,0.3,1.1,0.3c0.4,0,0.7-0.1,1.1-0.2c0.3-0.2,0.6-0.4,0.7-0.7c0.2-0.3,0.3-0.6,0.3-0.9v-0.6
			l-2,0.1c-0.5,0-0.9,0.2-1.2,0.4C66.1,42.5,65.9,42.8,65.9,43.2L65.9,43.2z"/>
		<path class="st0" d="M73.1,45.5v-8.1h1.7v1.4h0c0.1-0.5,0.4-0.8,0.7-1.1c0.3-0.3,0.7-0.4,1.2-0.4c0.1,0,0.2,0,0.3,0
			c0.1,0,0.2,0,0.3,0v1.6c-0.1,0-0.2,0-0.3-0.1c-0.1,0-0.3,0-0.4,0c-0.5,0-1,0.2-1.3,0.5c-0.3,0.3-0.5,0.8-0.5,1.4v4.8H73.1z"/>
		<path class="st0" d="M82.1,45.7c-0.8,0-1.4-0.2-1.8-0.5c-0.4-0.4-0.6-0.9-0.6-1.8v-4.6h-1.2v-1.3h1.2v-2.1h1.7v2.1h1.5v1.3h-1.5
			v4.5c0,0.4,0.1,0.7,0.3,0.8c0.2,0.2,0.4,0.2,0.8,0.2c0.1,0,0.2,0,0.2,0c0.1,0,0.1,0,0.2,0v1.3c-0.1,0-0.2,0-0.4,0
			C82.4,45.6,82.2,45.7,82.1,45.7z"/>
		<path class="st0" d="M84.7,45.5v-8.1h1.7v1.2h0c0.2-0.4,0.5-0.7,0.9-1c0.4-0.3,0.9-0.4,1.5-0.4c0.6,0,1.1,0.1,1.5,0.4s0.7,0.6,1,1
			c0.2,0.4,0.3,1,0.3,1.6v5.3H90v-4.9c0-0.6-0.1-1.1-0.4-1.4c-0.3-0.3-0.7-0.5-1.3-0.5c-0.4,0-0.7,0.1-1,0.3
			c-0.3,0.2-0.5,0.4-0.7,0.7c-0.2,0.3-0.2,0.7-0.2,1.1v4.7H84.7z"/>
		<path class="st0" d="M97.1,45.7c-0.8,0-1.5-0.2-2-0.5c-0.6-0.3-1-0.8-1.3-1.5c-0.3-0.6-0.5-1.4-0.5-2.2v0c0-0.6,0.1-1.2,0.3-1.7
			s0.4-1,0.8-1.3c0.3-0.4,0.7-0.7,1.2-0.9c0.5-0.2,1-0.3,1.5-0.3c0.8,0,1.4,0.2,2,0.5s1,0.8,1.3,1.4c0.3,0.6,0.4,1.3,0.4,2.1v0.6
			h-5.7c0,0.8,0.2,1.4,0.6,1.8c0.4,0.4,0.9,0.6,1.6,0.6c0.3,0,0.6-0.1,0.9-0.2c0.3-0.1,0.5-0.2,0.6-0.4c0.2-0.2,0.3-0.4,0.4-0.6
			l0-0.1h1.6l0,0.1c-0.1,0.3-0.2,0.6-0.4,0.9c-0.2,0.3-0.4,0.6-0.7,0.8c-0.3,0.2-0.6,0.4-1,0.5C98,45.6,97.5,45.7,97.1,45.7z
			 M97,38.6c-0.4,0-0.7,0.1-1,0.2c-0.3,0.2-0.5,0.4-0.7,0.7s-0.3,0.7-0.4,1.1H99c-0.1-0.7-0.3-1.2-0.6-1.6
			C98,38.8,97.5,38.6,97,38.6z"/>
		<path class="st0" d="M102.3,45.5v-8.1h1.7v1.4h0c0.1-0.5,0.4-0.8,0.7-1.1c0.3-0.3,0.7-0.4,1.2-0.4c0.1,0,0.2,0,0.3,0
			c0.1,0,0.2,0,0.3,0v1.6c-0.1,0-0.2,0-0.3-0.1c-0.1,0-0.3,0-0.4,0c-0.5,0-1,0.2-1.3,0.5c-0.3,0.3-0.5,0.8-0.5,1.4v4.8H102.3z"/>
	</g>
	<g>
		<path class="st0" d="M38.3,20.7c-2.8-0.2-5.2,1.6-6.5,1.6c-1.3,0-3.4-1.5-5.6-1.5c-2.9,0-5.6,1.7-7,4.3c-3,5.2-0.8,12.9,2.2,17.1
			c1.4,2.1,3.1,4.4,5.4,4.3c2.2-0.1,3-1.4,5.6-1.4c2.6,0,3.3,1.4,5.6,1.4c2.3,0,3.8-2.1,5.2-4.2c1.6-2.4,2.3-4.7,2.4-4.8
			c-0.1,0-4.5-1.7-4.6-6.9c0-4.3,3.5-6.4,3.7-6.5C42.5,21.1,39.4,20.7,38.3,20.7z"/>
		<path class="st0" d="M36.5,17.9c1.2-1.4,2-3.4,1.8-5.4c-1.7,0.1-3.8,1.1-5,2.6c-1.1,1.3-2.1,3.3-1.8,5.3
			C33.4,20.4,35.3,19.3,36.5,17.9z"/>
	</g>
</g>
</svg>
