<?xml version="1.0" encoding="UTF-8"?>
<svg id="Artwork" xmlns="http://www.w3.org/2000/svg" viewBox="0 0 338.49 432">
  <defs>
    <style>
      .cls-1 {
        fill: #1c1c1a;
      }

      .cls-1, .cls-2 {
        stroke-width: 0px;
      }

      .cls-2 {
        fill: #eee;
      }
    </style>
  </defs>
  <path class="cls-2" d="m0,342.27c.02,11.19.05,18.41.1,23.87.05,5.38.12,9.08.21,12.04.18,5.66.52,9.72,1.01,13.23.83,5.9,2.23,10.67,4.32,15.03,2.08,4.34,4.87,8.28,8.24,11.66,3.38,3.38,7.32,6.18,11.66,8.26,4.37,2.1,9.14,3.5,15.03,4.33,3.51.49,7.55.82,13.2,1,2.96.1,6.65.16,12.02.21,5.45.05,12.66.07,23.85.09h159.2c11.19-.02,18.4-.04,23.85-.09,5.38-.05,9.06-.11,12.02-.21,5.65-.18,9.69-.51,13.2-1,5.89-.83,10.66-2.23,15.03-4.33,4.35-2.09,8.29-4.89,11.66-8.26,3.38-3.38,6.16-7.32,8.24-11.66,2.09-4.36,3.49-9.13,4.32-15.03.49-3.51.83-7.57,1.01-13.23.1-2.97.16-6.66.21-12.04.05-5.46.08-12.68.1-23.87V89.73c-.02-11.19-.05-18.41-.1-23.87-.05-5.38-.12-9.08-.21-12.04-.18-5.66-.52-9.72-1.01-13.23-.83-5.9-2.23-10.67-4.32-15.03-2.08-4.34-4.87-8.28-8.24-11.66-3.38-3.38-7.32-6.18-11.66-8.26-4.37-2.1-9.14-3.5-15.03-4.33-3.51-.49-7.55-.82-13.2-1-2.96-.1-6.65-.16-12.02-.21-5.45-.05-12.66-.07-23.85-.09H89.65c-11.19.02-18.4.04-23.85.09-5.38.05-9.06.11-12.02.21-5.65.18-9.69.51-13.2,1-5.89.83-10.66,2.23-15.03,4.33-4.35,2.09-8.29,4.89-11.66,8.26-3.38,3.38-6.16,7.32-8.24,11.66-2.09,4.36-3.49,9.13-4.32,15.03-.49,3.51-.83,7.57-1.01,13.23-.1,2.97-.16,6.66-.21,12.04C.05,71.32.02,78.54,0,89.73v252.54Z"/>
  <g>
    <path class="cls-1" d="m61.32,306.93v-39.5h14.7c1.93,0,3.7.31,5.31.93,1.61.62,2.99,1.5,4.15,2.64s2.06,2.5,2.7,4.09c.64,1.59.96,3.35.96,5.28v.06c0,1.93-.32,3.69-.96,5.28-.64,1.59-1.54,2.96-2.7,4.11-1.16,1.15-2.54,2.04-4.15,2.67-1.61.63-3.38.94-5.31.94h-8.57v13.49h-6.13Zm13.17-34.32h-7.03v15.68h7.03c2.66,0,4.73-.68,6.2-2.05,1.47-1.37,2.2-3.29,2.2-5.78v-.05c0-2.46-.73-4.38-2.2-5.75-1.47-1.37-3.54-2.05-6.2-2.05Z"/>
    <path class="cls-1" d="m94.63,306.93v-28.79h5.91v4.93h.14c.47-1.68,1.29-3.01,2.44-4,1.15-.99,2.54-1.48,4.19-1.48.42,0,.81.03,1.16.08.36.05.65.1.89.14v5.5c-.24-.09-.59-.17-1.07-.23-.47-.06-1-.1-1.59-.1-1.9,0-3.4.59-4.5,1.78-1.1,1.19-1.66,2.86-1.66,5.01v17.16h-5.91Z"/>
    <path class="cls-1" d="m125.48,307.51c-2.81,0-5.23-.61-7.27-1.82s-3.59-2.93-4.68-5.16c-1.09-2.23-1.63-4.85-1.63-7.88v-.03c0-2.24.31-4.29.93-6.13s1.51-3.43,2.68-4.76c1.17-1.33,2.56-2.35,4.19-3.07,1.62-.71,3.45-1.07,5.47-1.07,2.7,0,5.02.6,6.97,1.81s3.44,2.89,4.49,5.06c1.05,2.17,1.57,4.7,1.57,7.58v2h-20.39c.05,2.72.78,4.84,2.17,6.35,1.4,1.52,3.27,2.27,5.63,2.27,1.17,0,2.2-.18,3.09-.55.89-.36,1.64-.85,2.23-1.45.59-.6,1.01-1.26,1.25-1.97l.08-.22h5.61l-.05.3c-.24,1.15-.68,2.24-1.34,3.28-.66,1.04-1.51,1.97-2.56,2.79-1.05.82-2.28,1.47-3.7,1.94-1.41.47-3,.71-4.75.71Zm-.27-25.07c-1.28,0-2.44.28-3.48.85-1.04.57-1.89,1.4-2.56,2.51s-1.09,2.46-1.27,4.06h14.45c-.24-2.5-1-4.36-2.3-5.58-1.3-1.22-2.91-1.83-4.84-1.83Z"/>
    <path class="cls-1" d="m144.18,306.93v-28.79h5.91v4.46h.14c.62-1.51,1.63-2.73,3.02-3.64s3.03-1.37,4.91-1.37c1.99,0,3.68.49,5.08,1.48,1.4.99,2.38,2.38,2.94,4.19h.14c.75-1.75,1.92-3.13,3.52-4.15,1.6-1.01,3.42-1.52,5.46-1.52,1.9,0,3.55.4,4.97,1.19,1.41.79,2.51,1.9,3.28,3.33.77,1.42,1.16,3.1,1.16,5.04v19.79h-5.94v-18.37c0-1.88-.48-3.33-1.44-4.37-.96-1.03-2.31-1.55-4.06-1.55-1.17,0-2.2.27-3.09.81-.9.54-1.59,1.28-2.09,2.22-.5.94-.75,2.02-.75,3.24v18.01h-5.8v-18.8c0-1.68-.49-3.01-1.46-4s-2.3-1.48-3.98-1.48c-1.17,0-2.2.28-3.11.85s-1.61,1.34-2.12,2.31c-.51.98-.77,2.08-.77,3.32v17.79h-5.91Z"/>
    <path class="cls-1" d="m195.01,273.7c-.64,0-1.22-.16-1.74-.47-.52-.31-.93-.72-1.25-1.23s-.47-1.08-.47-1.7.16-1.21.47-1.72.72-.92,1.25-1.23c.52-.31,1.1-.46,1.74-.46s1.25.16,1.77.46c.52.31.93.72,1.23,1.23.3.51.45,1.09.45,1.72s-.15,1.19-.45,1.7c-.3.51-.71.92-1.23,1.23-.52.31-1.11.47-1.77.47Zm-2.96,33.23v-28.79h5.91v28.79h-5.91Z"/>
    <path class="cls-1" d="m215.27,307.51c-2.1,0-3.89-.43-5.38-1.3-1.49-.87-2.62-2.1-3.39-3.7-.78-1.6-1.16-3.5-1.16-5.71v-18.67h5.91v17.52c0,2.17.51,3.84,1.53,5.01s2.55,1.75,4.6,1.75c1.39,0,2.59-.31,3.61-.93,1.02-.62,1.81-1.49,2.38-2.61.56-1.12.85-2.43.85-3.93v-16.81h5.94v28.79h-5.94v-4.32h-.14c-.75,1.44-1.86,2.62-3.33,3.53-1.47.91-3.3,1.37-5.49,1.37Z"/>
    <path class="cls-1" d="m237.39,306.93v-28.79h5.91v4.46h.14c.62-1.51,1.63-2.73,3.02-3.64s3.03-1.37,4.91-1.37c1.99,0,3.68.49,5.08,1.48,1.4.99,2.38,2.38,2.94,4.19h.14c.75-1.75,1.92-3.13,3.52-4.15,1.6-1.01,3.42-1.52,5.46-1.52,1.9,0,3.55.4,4.97,1.19,1.41.79,2.51,1.9,3.28,3.33.77,1.42,1.16,3.1,1.16,5.04v19.79h-5.94v-18.37c0-1.88-.48-3.33-1.44-4.37-.96-1.03-2.31-1.55-4.06-1.55-1.17,0-2.2.27-3.09.81-.9.54-1.59,1.28-2.09,2.22-.5.94-.75,2.02-.75,3.24v18.01h-5.8v-18.8c0-1.68-.49-3.01-1.46-4s-2.3-1.48-3.98-1.48c-1.17,0-2.2.28-3.11.85s-1.61,1.34-2.12,2.31c-.51.98-.77,2.08-.77,3.32v17.79h-5.91Z"/>
    <path class="cls-1" d="m80.08,365.33v-39.5h14.7c1.93,0,3.7.31,5.31.93,1.61.62,2.99,1.5,4.15,2.64,1.16,1.14,2.06,2.5,2.7,4.09.64,1.59.96,3.35.96,5.28v.06c0,1.93-.32,3.69-.96,5.28-.64,1.59-1.54,2.96-2.7,4.11-1.16,1.15-2.54,2.04-4.15,2.67-1.61.63-3.38.94-5.31.94h-8.57v13.49h-6.13Zm13.17-34.32h-7.03v15.68h7.03c2.66,0,4.73-.68,6.2-2.05,1.47-1.37,2.2-3.29,2.2-5.78v-.05c0-2.46-.73-4.38-2.2-5.75-1.47-1.37-3.54-2.05-6.2-2.05Z"/>
    <path class="cls-1" d="m120.72,365.85c-1.92,0-3.59-.36-5.04-1.09s-2.56-1.75-3.37-3.07c-.8-1.31-1.21-2.83-1.21-4.54v-.05c0-2.5.93-4.49,2.79-5.97s4.5-2.32,7.91-2.52l7.83-.46v-2.16c0-1.59-.49-2.83-1.48-3.74-.99-.9-2.4-1.35-4.24-1.35-1.71,0-3.08.36-4.11,1.09s-1.66,1.67-1.92,2.82l-.05.25h-5.58l.03-.3c.15-1.66.7-3.15,1.67-4.46s2.31-2.36,4.02-3.13c1.71-.78,3.75-1.16,6.1-1.16s4.39.39,6.1,1.18,3.04,1.88,3.98,3.3c.94,1.41,1.41,3.09,1.41,5.02v19.84h-5.94v-4.54h-.11c-.84,1.55-2.04,2.78-3.61,3.69-1.57.91-3.3,1.37-5.2,1.37Zm-3.64-8.84c0,1.26.48,2.26,1.44,3s2.23,1.11,3.82,1.11c1.39,0,2.63-.29,3.74-.86,1.1-.57,1.97-1.36,2.61-2.35.64-.99.96-2.11.96-3.35v-2.24l-7.03.44c-1.77.11-3.13.53-4.09,1.27-.96.74-1.44,1.72-1.44,2.94v.05Z"/>
    <path class="cls-1" d="m142.42,365.33v-28.79h5.91v4.93h.14c.47-1.68,1.29-3.01,2.44-4,1.15-.99,2.54-1.48,4.19-1.48.42,0,.81.03,1.16.08.36.05.65.1.89.14v5.5c-.24-.09-.59-.17-1.07-.23-.47-.06-1-.1-1.59-.1-1.9,0-3.4.59-4.5,1.78-1.1,1.19-1.66,2.86-1.66,5.01v17.16h-5.91Z"/>
    <path class="cls-1" d="m174.28,365.9c-2.85,0-4.96-.64-6.35-1.93s-2.08-3.36-2.08-6.23v-16.5h-4.13v-4.71h4.13v-7.5h6.05v7.5h5.39v4.71h-5.39v16.15c0,1.46.32,2.46.97,3,.65.54,1.59.81,2.83.81.31,0,.6-.01.86-.04.26-.03.51-.05.72-.07v4.57c-.35.05-.78.11-1.31.16-.53.05-1.09.08-1.7.08Z"/>
    <path class="cls-1" d="m183.56,365.33v-28.79h5.91v4.35h.14c.75-1.46,1.86-2.64,3.34-3.54s3.3-1.35,5.47-1.35,3.91.43,5.39,1.3,2.61,2.1,3.39,3.69c.78,1.6,1.18,3.5,1.18,5.71v18.64h-5.94v-17.52c0-2.17-.51-3.84-1.52-5.01-1.01-1.17-2.55-1.75-4.61-1.75-1.39,0-2.59.31-3.61.94-1.02.63-1.82,1.51-2.38,2.63-.57,1.12-.85,2.43-.85,3.93v16.78h-5.91Z"/>
    <path class="cls-1" d="m227.77,365.9c-2.81,0-5.23-.61-7.27-1.82s-3.59-2.93-4.68-5.16c-1.09-2.23-1.63-4.85-1.63-7.88v-.03c0-2.24.31-4.29.93-6.13.62-1.84,1.51-3.43,2.68-4.76,1.17-1.33,2.56-2.35,4.19-3.07,1.62-.71,3.45-1.07,5.47-1.07,2.7,0,5.02.6,6.97,1.81s3.44,2.89,4.49,5.06c1.05,2.17,1.57,4.7,1.57,7.58v2h-20.39c.05,2.72.78,4.84,2.17,6.35,1.4,1.52,3.27,2.27,5.63,2.27,1.17,0,2.2-.18,3.09-.55.89-.36,1.64-.85,2.23-1.45.59-.6,1.01-1.26,1.25-1.97l.08-.22h5.61l-.05.3c-.24,1.15-.68,2.24-1.34,3.28-.66,1.04-1.51,1.97-2.56,2.79-1.05.82-2.28,1.47-3.7,1.94-1.41.47-3,.71-4.75.71Zm-.27-25.07c-1.28,0-2.44.28-3.48.85-1.04.57-1.89,1.4-2.56,2.51s-1.09,2.46-1.27,4.06h14.45c-.24-2.5-1-4.36-2.3-5.58-1.3-1.22-2.91-1.83-4.84-1.83Z"/>
    <path class="cls-1" d="m246.47,365.33v-28.79h5.91v4.93h.14c.47-1.68,1.29-3.01,2.44-4,1.15-.99,2.54-1.48,4.19-1.48.42,0,.81.03,1.16.08.36.05.65.1.89.14v5.5c-.24-.09-.59-.17-1.07-.23-.47-.06-1-.1-1.59-.1-1.9,0-3.4.59-4.5,1.78-1.1,1.19-1.66,2.86-1.66,5.01v17.16h-5.91Z"/>
  </g>
  <g>
    <path class="cls-1" d="m205.79,89.93c-15.21-1.13-28.12,8.5-35.32,8.5s-18.57-8.25-30.51-8.03c-15.68.23-30.13,9.12-38.22,23.16-16.29,28.27-4.16,70.16,11.71,93.1,7.76,11.21,17.01,23.84,29.17,23.38,11.7-.46,16.13-7.57,30.27-7.57s18.12,7.57,30.5,7.34c12.59-.23,20.57-11.44,28.28-22.71,8.91-13.01,12.58-25.61,12.79-26.27-.28-.11-24.55-9.42-24.79-37.38-.22-23.38,19.08-34.62,19.96-35.16-10.96-16.14-27.88-17.92-33.84-18.36Z"/>
    <path class="cls-1" d="m196.4,74.79c6.46-7.81,10.81-18.68,9.61-29.5-9.3.37-20.54,6.19-27.21,14-5.97,6.91-11.22,17.98-9.79,28.58,10.36.8,20.94-5.26,27.4-13.08Z"/>
  </g>
</svg>