<?xml version="1.0" encoding="UTF-8" standalone="no"?><!DOCTYPE svg PUBLIC "-//W3C//DTD SVG 1.1//EN" "http://www.w3.org/Graphics/SVG/1.1/DTD/svg11.dtd"><svg width="100%" height="100%" viewBox="0 0 267 54" version="1.1" xmlns="http://www.w3.org/2000/svg" xmlns:xlink="http://www.w3.org/1999/xlink" xml:space="preserve" xmlns:serif="http://www.serif.com/" style="fill-rule:evenodd;clip-rule:evenodd;stroke-linecap:square;stroke-linejoin:round;stroke-miterlimit:1.5;"><rect id="istore-logo-for-website" serif:id="istore logo for website" x="0" y="0" width="266.667" height="53.333" style="fill:none;"/><g><path d="M9.164,47.968l9.02,-0l-0,-30.905l-9.02,0l0,30.905Zm4.524,-34.439c2.941,-0 4.948,-1.866 4.948,-4.411c0,-2.545 -2.007,-4.411 -4.948,-4.411c-2.941,0 -4.976,1.866 -4.976,4.411c-0,2.545 2.035,4.411 4.976,4.411Z" style="fill:#fff;fill-rule:nonzero;"/><path d="M25.804,36.601c0.311,7.55 6.531,12.215 16.117,12.215c10.037,0 16.343,-4.948 16.343,-12.893c-0,-6.192 -3.535,-9.67 -11.763,-11.48l-4.835,-1.074c-4.863,-1.131 -6.871,-2.63 -6.871,-5.288c0,-3.251 2.941,-5.4 7.38,-5.4c4.383,-0 7.465,2.205 7.832,5.739l7.55,0c-0.226,-7.21 -6.362,-12.101 -15.382,-12.101c-9.133,-0 -15.41,4.948 -15.41,12.384c0,6.023 3.591,9.755 11.056,11.395l5.315,1.188c5.062,1.159 7.126,2.771 7.126,5.598c-0,3.223 -3.252,5.57 -7.917,5.57c-4.864,0 -8.398,-2.318 -8.822,-5.853l-7.719,0Z" style="fill:#fff;fill-rule:nonzero;"/><path d="M68.443,10.023l-0,7.351l-4.581,0l0,5.881l4.581,0l-0,16.4c-0,5.938 2.799,8.313 9.896,8.313c1.527,-0 2.941,-0.141 3.845,-0.311l0,-5.768c-0.65,0.085 -1.329,0.141 -2.205,0.141c-2.658,0 -3.874,-1.216 -3.874,-3.874l0,-14.901l6.079,0l0,-5.881l-6.079,0l0,-7.351l-7.662,-0Z" style="fill:#fff;fill-rule:nonzero;"/><path d="M100.962,48.533c9.246,0 14.957,-5.937 14.957,-15.862c0,-9.84 -5.768,-15.862 -14.957,-15.862c-9.19,-0 -14.986,6.022 -14.986,15.862c-0,9.896 5.711,15.862 14.986,15.862Zm-0,-6.079c-4.496,0 -7.126,-3.562 -7.126,-9.783c0,-6.164 2.63,-9.783 7.126,-9.783c4.467,-0 7.097,3.619 7.097,9.783c-0,6.221 -2.63,9.783 -7.097,9.783Z" style="fill:#fff;fill-rule:nonzero;"/><path d="M121.518,47.968l7.69,-0l0,-17.361c0,-4.298 2.771,-6.927 7.041,-6.927c1.216,-0 2.714,0.198 3.336,0.424l0,-6.843c-0.622,-0.198 -1.668,-0.311 -2.686,-0.311c-3.76,0 -6.701,2.177 -7.634,5.542l-0.311,0l-0,-5.118l-7.436,0l-0,30.594Z" style="fill:#fff;fill-rule:nonzero;"/><path d="M156.494,22.633c3.902,0 6.531,2.743 6.673,6.984l-13.6,0c0.282,-4.184 3.053,-6.984 6.927,-6.984Zm6.786,16.457c-0.848,2.29 -3.223,3.619 -6.475,3.619c-4.354,-0 -7.238,-3.054 -7.295,-7.776l-0,-0.424l21.206,0l0,-2.375c0,-9.501 -5.429,-15.325 -14.25,-15.325c-8.964,-0 -14.619,6.192 -14.619,16.003c0,9.784 5.571,15.721 14.788,15.721c7.38,0 12.724,-3.704 13.799,-9.443l-7.154,-0Z" style="fill:#fff;fill-rule:nonzero;"/><path d="M190.809,5.772l0,43.685" style="fill:none;stroke:#fff;stroke-width:1.39px;"/><path d="M234.984,21.096c-0.152,0.371 -0.32,0.72 -0.505,1.048c-0.186,0.329 -0.388,0.645 -0.607,0.948c-0.286,0.404 -0.547,0.749 -0.783,1.035c-0.235,0.287 -0.446,0.514 -0.631,0.683c-0.27,0.252 -0.56,0.446 -0.872,0.581c-0.311,0.134 -0.627,0.202 -0.947,0.202c-0.236,-0 -0.493,-0.034 -0.771,-0.101c-0.277,-0.068 -0.585,-0.169 -0.922,-0.304c-0.32,-0.134 -0.631,-0.231 -0.934,-0.29c-0.303,-0.059 -0.59,-0.088 -0.859,-0.088c-0.303,-0 -0.606,0.029 -0.91,0.088c-0.303,0.059 -0.623,0.156 -0.96,0.29c-0.336,0.135 -0.64,0.24 -0.909,0.316c-0.269,0.076 -0.505,0.114 -0.707,0.114c-0.303,0.017 -0.611,-0.042 -0.922,-0.177c-0.312,-0.135 -0.628,-0.345 -0.948,-0.631c-0.185,-0.186 -0.404,-0.426 -0.656,-0.72c-0.253,-0.295 -0.523,-0.653 -0.809,-1.074c-0.32,-0.438 -0.61,-0.918 -0.871,-1.44c-0.261,-0.522 -0.501,-1.078 -0.72,-1.667c-0.219,-0.64 -0.383,-1.272 -0.493,-1.895c-0.109,-0.623 -0.164,-1.229 -0.164,-1.819c-0,-0.69 0.076,-1.33 0.227,-1.92c0.152,-0.589 0.379,-1.136 0.682,-1.642c0.236,-0.387 0.505,-0.741 0.809,-1.061c0.303,-0.32 0.648,-0.589 1.035,-0.808c0.405,-0.236 0.813,-0.413 1.226,-0.53c0.412,-0.118 0.846,-0.186 1.301,-0.203c0.252,0 0.543,0.038 0.871,0.114c0.328,0.076 0.695,0.19 1.099,0.341c0.387,0.152 0.711,0.265 0.973,0.341c0.261,0.076 0.45,0.114 0.568,0.114c0.084,-0 0.269,-0.042 0.556,-0.126c0.286,-0.085 0.673,-0.219 1.162,-0.405c0.454,-0.168 0.875,-0.286 1.263,-0.353c0.387,-0.068 0.741,-0.085 1.061,-0.051c0.859,0.068 1.612,0.27 2.261,0.606c0.648,0.337 1.191,0.817 1.629,1.44c-0.775,0.455 -1.351,1.011 -1.73,1.668c-0.379,0.656 -0.569,1.406 -0.569,2.248c0,0.657 0.122,1.255 0.367,1.794c0.244,0.538 0.593,1.027 1.048,1.465c0.219,0.202 0.446,0.379 0.682,0.53c0.236,0.152 0.48,0.286 0.733,0.404c-0.051,0.152 -0.106,0.308 -0.165,0.468c-0.059,0.16 -0.122,0.315 -0.189,0.467Zm-3.941,-15.536c0,0.505 -0.097,0.998 -0.29,1.478c-0.194,0.48 -0.476,0.939 -0.847,1.377c-0.454,0.522 -0.947,0.926 -1.477,1.212c-0.531,0.287 -1.091,0.404 -1.68,0.354c-0.017,-0.067 -0.026,-0.131 -0.026,-0.19l0,-0.189c0,-0.505 0.101,-1.01 0.303,-1.516c0.203,-0.505 0.497,-0.968 0.885,-1.389c0.185,-0.219 0.4,-0.421 0.644,-0.606c0.244,-0.186 0.509,-0.346 0.796,-0.48c0.303,-0.152 0.589,-0.266 0.858,-0.341c0.27,-0.076 0.539,-0.122 0.809,-0.139l0.025,0.429Z" style="fill:#fff;fill-rule:nonzero;"/><g><path d="M206.557,31.238l0,7.235l0.923,-0l-0,-2.572l1.73,-0c1.363,-0 2.336,-0.958 2.336,-2.327c-0,-1.378 -0.958,-2.336 -2.321,-2.336l-2.668,-0Zm0.923,0.817l1.504,0c1.033,0 1.614,0.547 1.614,1.519c0,0.958 -0.591,1.509 -1.614,1.509l-1.504,0l-0,-3.028Z" style="fill:#fff;fill-rule:nonzero;"/><g><path d="M212.47,38.473l0.888,-0l-0,-3.269c-0,-0.752 0.516,-1.269 1.268,-1.269c0.191,0 0.441,0.025 0.512,0.05l-0,-0.872c-0.096,-0.015 -0.251,-0.025 -0.396,-0.025c-0.662,-0 -1.224,0.361 -1.379,0.902l-0.05,0l-0,-0.832l-0.843,0l0,5.315Z" style="fill:#fff;fill-rule:nonzero;"/><path d="M218.156,33.855c0.832,0 1.389,0.602 1.409,1.509l-2.883,0c0.06,-0.902 0.647,-1.509 1.474,-1.509Zm1.389,3.164c-0.181,0.476 -0.662,0.757 -1.324,0.757c-0.917,-0 -1.519,-0.652 -1.544,-1.67l-0,-0.045l3.81,0l0,-0.336c0,-1.629 -0.882,-2.642 -2.316,-2.642c-1.464,-0 -2.407,1.083 -2.407,2.747c0,1.665 0.938,2.718 2.437,2.718c1.153,-0 2.021,-0.607 2.221,-1.529l-0.877,-0Z" style="fill:#fff;fill-rule:nonzero;"/><path d="M221.6,38.473l0.888,-0l-0,-3.289c-0,-0.737 0.521,-1.309 1.213,-1.309c0.662,0 1.093,0.406 1.093,1.043l0,3.555l0.883,-0l-0,-3.375c-0,-0.691 0.491,-1.223 1.208,-1.223c0.722,0 1.103,0.401 1.103,1.153l-0,3.445l0.887,-0l0,-3.65c0,-1.083 -0.641,-1.74 -1.709,-1.74c-0.742,-0 -1.359,0.376 -1.65,0.978l-0.05,-0c-0.236,-0.602 -0.752,-0.978 -1.479,-0.978c-0.697,-0 -1.249,0.346 -1.494,0.932l-0.05,0l-0,-0.857l-0.843,0l0,5.315Z" style="fill:#fff;fill-rule:nonzero;"/><path d="M230.239,38.473l0.887,-0l0,-5.315l-0.887,0l0,5.315Zm0.446,-6.242c0.321,-0 0.582,-0.261 0.582,-0.582c-0,-0.321 -0.261,-0.577 -0.582,-0.577c-0.321,0 -0.581,0.256 -0.581,0.577c-0,0.321 0.26,0.582 0.581,0.582Z" style="fill:#fff;fill-rule:nonzero;"/><path d="M236.882,33.158l-0.887,0l-0,3.114c-0,0.907 -0.512,1.479 -1.404,1.479c-0.827,-0 -1.208,-0.452 -1.208,-1.354l-0,-3.239l-0.888,0l0,3.425c0,1.233 0.657,1.965 1.83,1.965c0.817,-0 1.369,-0.331 1.665,-0.933l0.05,0l-0,0.858l0.842,-0l0,-5.315Z" style="fill:#fff;fill-rule:nonzero;"/><path d="M238.256,38.473l0.887,-0l0,-3.289c0,-0.737 0.522,-1.309 1.214,-1.309c0.662,0 1.093,0.406 1.093,1.043l-0,3.555l0.882,-0l0,-3.375c0,-0.691 0.491,-1.223 1.208,-1.223c0.722,0 1.103,0.401 1.103,1.153l0,3.445l0.888,-0l-0,-3.65c-0,-1.083 -0.642,-1.74 -1.71,-1.74c-0.742,-0 -1.359,0.376 -1.649,0.978l-0.05,-0c-0.236,-0.602 -0.753,-0.978 -1.48,-0.978c-0.696,-0 -1.248,0.346 -1.494,0.932l-0.05,0l0,-0.857l-0.842,0l-0,5.315Z" style="fill:#fff;fill-rule:nonzero;"/></g></g><g><path d="M207.48,47.166l1.735,0l1.544,2.858l1.078,0l-1.67,-2.998c0.908,-0.286 1.449,-1.073 1.449,-2.076c0,-1.308 -0.912,-2.161 -2.316,-2.161l-2.743,0l0,7.235l0.923,0l-0,-2.858Zm-0,-3.559l1.699,-0c0.928,-0 1.484,0.511 1.484,1.373c0,0.883 -0.521,1.379 -1.443,1.379l-1.74,0l-0,-2.752Z" style="fill:#fff;fill-rule:nonzero;"/><g><path d="M214.803,45.407c0.832,-0 1.389,0.601 1.409,1.509l-2.883,-0c0.06,-0.903 0.647,-1.509 1.474,-1.509Zm1.389,3.163c-0.181,0.477 -0.662,0.757 -1.324,0.757c-0.917,0 -1.519,-0.651 -1.544,-1.669l-0,-0.045l3.81,-0l0,-0.336c0,-1.63 -0.882,-2.643 -2.316,-2.643c-1.464,0 -2.407,1.083 -2.407,2.748c0,1.665 0.938,2.717 2.437,2.717c1.153,0 2.021,-0.606 2.221,-1.529l-0.877,0Z" style="fill:#fff;fill-rule:nonzero;"/><path d="M218.137,46.184c0,0.742 0.461,1.193 1.429,1.434l0.922,0.23c0.582,0.151 0.828,0.366 0.828,0.732c-0,0.472 -0.467,0.787 -1.163,0.787c-0.707,0 -1.144,-0.28 -1.259,-0.777l-0.897,0c0.085,0.913 0.922,1.509 2.115,1.509c1.214,0 2.106,-0.651 2.106,-1.589c0,-0.767 -0.436,-1.178 -1.474,-1.429l-0.827,-0.2c-0.612,-0.151 -0.898,-0.381 -0.898,-0.737c0,-0.462 0.462,-0.773 1.093,-0.773c0.642,0 1.058,0.291 1.144,0.748l0.857,-0c-0.07,-0.883 -0.872,-1.48 -1.986,-1.48c-1.153,0 -1.99,0.652 -1.99,1.545Z" style="fill:#fff;fill-rule:nonzero;"/><path d="M225.472,45.407c0.832,-0 1.389,0.601 1.409,1.509l-2.883,-0c0.06,-0.903 0.647,-1.509 1.474,-1.509Zm1.389,3.163c-0.181,0.477 -0.662,0.757 -1.324,0.757c-0.917,0 -1.519,-0.651 -1.544,-1.669l0,-0.045l3.81,-0l0,-0.336c0,-1.63 -0.882,-2.643 -2.316,-2.643c-1.464,0 -2.406,1.083 -2.406,2.748c-0,1.665 0.937,2.717 2.436,2.717c1.153,0 2.021,-0.606 2.221,-1.529l-0.877,0Z" style="fill:#fff;fill-rule:nonzero;"/><rect x="228.962" y="42.629" width="0.887" height="7.395" style="fill:#fff;fill-rule:nonzero;"/><rect x="231.318" y="42.629" width="0.887" height="7.395" style="fill:#fff;fill-rule:nonzero;"/><path d="M235.76,45.407c0.833,-0 1.389,0.601 1.409,1.509l-2.883,-0c0.06,-0.903 0.647,-1.509 1.474,-1.509Zm1.389,3.163c-0.18,0.477 -0.662,0.757 -1.324,0.757c-0.917,0 -1.519,-0.651 -1.544,-1.669l0,-0.045l3.811,-0l-0,-0.336c-0,-1.63 -0.883,-2.643 -2.317,-2.643c-1.464,0 -2.406,1.083 -2.406,2.748c-0,1.665 0.937,2.717 2.436,2.717c1.154,0 2.021,-0.606 2.221,-1.529l-0.877,0Z" style="fill:#fff;fill-rule:nonzero;"/><path d="M239.205,50.024l0.887,0l0,-3.269c0,-0.752 0.517,-1.268 1.269,-1.268c0.19,-0 0.441,0.025 0.511,0.05l-0,-0.872c-0.095,-0.015 -0.251,-0.026 -0.396,-0.026c-0.662,0 -1.223,0.361 -1.379,0.903l-0.05,-0l-0,-0.832l-0.842,-0l-0,5.314Z" style="fill:#fff;fill-rule:nonzero;"/></g></g></g></svg>